<svg width="25" height="21" viewBox="0 0 25 21" fill="none" xmlns="http://www.w3.org/2000/svg">
<path d="M15.3688 20.4263L23.5824 12.1156C24.3348 11.3497 24.3348 10.1066 23.5824 9.34324L15.3688 1.02761C14.6101 0.261727 13.3821 0.265569 12.6234 1.02761C11.8723 1.79477 11.8723 3.03279 12.6234 3.79995L17.4285 8.66091L2.01437 8.66091C0.900866 8.66091 -1.90735e-05 9.5782 -1.90735e-05 10.7135C-1.90735e-05 11.8476 0.900866 12.7662 2.01437 12.7662L17.4575 12.7662L12.6234 17.6528C11.8723 18.4186 11.8723 19.6579 12.6234 20.4238C13.3809 21.191 14.6089 21.1923 15.3688 20.4264V20.4263Z" fill="white"/>
</svg>
